# ProBuilder 6.0.9
# https://unity3d.com/unity/features/worldbuilding/probuilder
# 15-03-2026 15:55:11

mtllib ./Cube.mtl
o Cube

g Cube
v 292.045 1.05 -293.2
v 292.045 1.95 -293.2
v 292.045 1.95 -294.8
v 292.045 1.05 -294.8
v 291.955 1.95 -293.2
v 291.955 1.95 -294.8
v 291.955 1.05 -293.2
v 291.955 1.05 -294.8

vt 0 0
vt 0 1
vt 1 1
vt 1 0

vn 0.09 0 -1.072884E-08
vn 0 0.9 0
vn -0.09 0 1.072884E-08
vn 0 -0.9 0
vn -1.907349E-07 0 -1.6
vn 1.907349E-07 0 1.6

usemtl Lit
f 4/4/1 3/3/1 2/2/1 1/1/1
f 3/4/2 6/3/2 5/2/2 2/1/2
f 6/4/3 8/3/3 7/2/3 5/1/3
f 8/4/4 4/3/4 1/2/4 7/1/4
f 8/4/5 6/3/5 3/2/5 4/1/5
f 1/4/6 2/3/6 5/2/6 7/1/6

